<svg width="960" height="720" viewBox="0 0 960 720" fill="none" xmlns="http://www.w3.org/2000/svg" role="img" aria-labelledby="title desc">
  <title id="title">Ilustrasi lanskap Desa Cilalawi</title>
  <desc id="desc">Lanskap abstrak desa dengan bukit, sawah, kantor desa, dan jalur sungai.</desc>
  <rect width="960" height="720" rx="48" fill="#F7F1E3"/>
  <circle cx="746" cy="146" r="70" fill="#DFAE43" opacity="0.85"/>
  <path d="M0 319C104 272 198 260 310 311C428 365 533 366 654 297C763 235 870 244 960 284V720H0V319Z" fill="#E6D4A2"/>
  <path d="M0 379C120 324 249 349 344 409C457 481 585 448 685 384C793 315 884 334 960 378V720H0V379Z" fill="#C8D6B9"/>
  <path d="M0 478C132 426 263 436 397 496C547 563 710 532 960 445V720H0V478Z" fill="#9FB89A"/>
  <path d="M116 567C252 517 448 535 589 579C717 619 837 606 960 563V720H0V620C35 605 72 584 116 567Z" fill="#334155"/>
  <path d="M198 469H412V596H198V469Z" fill="#FFF9EA" stroke="#1F2937" stroke-width="6"/>
  <path d="M176 469L305 377L434 469H176Z" fill="#A55233" stroke="#1F2937" stroke-width="6"/>
  <path d="M258 520H320V596H258V520Z" fill="#1F2937"/>
  <path d="M338 504H382V548H338V504Z" fill="#DFAE43"/>
  <path d="M226 504H270V548H226V504Z" fill="#DFAE43"/>
  <path d="M560 484C628 455 690 463 748 493C808 524 864 524 920 500" stroke="#F7F1E3" stroke-width="18" stroke-linecap="round" opacity="0.85"/>
  <path d="M74 620C211 579 338 593 467 632" stroke="#E6D4A2" stroke-width="8" stroke-linecap="round" opacity="0.75"/>
  <path d="M642 196L686 164L730 196L686 228L642 196Z" fill="#FFF9EA" opacity="0.72"/>
</svg>
